<svg width="136" height="36" viewBox="0 0 136 36" fill="none" xmlns="http://www.w3.org/2000/svg">
<g opacity="0.9" filter="url(#filter0_d_726_2403)">
<path d="M23 27.3L22.4 26.8C20.4 24.9 19 23.7 19 22.2C19 21 20 20 21.2 20C21.9 20 22.6 20.3 23 20.8C23.4 20.3 24.1 20 24.8 20C26 20 27 20.9 27 22.2C27 23.7 25.6 24.9 23.6 26.8L23 27.3Z" fill="#50B2C0"/>
<path d="M22 6C23.1 6 24 6.9 24 8V17.08L23 17L22 17.08V8H17V16L14.5 13.75L12 16V8H10V24H17.08C17.2 24.72 17.45 25.39 17.8 26H10C8.9 26 8 25.1 8 24V8C8 6.9 8.9 6 10 6H22Z" fill="#8381D9"/>
<path d="M37.7861 23V8.9H43.9461C45.4261 8.9 46.5728 9.22667 47.3861 9.88C48.1994 10.52 48.6061 11.4133 48.6061 12.56C48.6061 13.32 48.4128 13.9733 48.0261 14.52C47.6394 15.0667 47.1061 15.4667 46.4261 15.72C47.2261 15.9467 47.8461 16.3467 48.2861 16.92C48.7394 17.48 48.9661 18.1933 48.9661 19.06C48.9661 20.3133 48.5394 21.2867 47.6861 21.98C46.8461 22.66 45.6728 23 44.1661 23H37.7861ZM40.2461 14.88H43.5061C45.2528 14.88 46.1261 14.2067 46.1261 12.86C46.1261 11.5133 45.2528 10.84 43.5061 10.84H40.2461V14.88ZM40.2461 21.06H43.8461C45.6061 21.06 46.4861 20.3533 46.4861 18.94C46.4861 17.5267 45.6061 16.82 43.8461 16.82H40.2461V21.06ZM55.7756 23.2C54.7623 23.2 53.8823 22.9933 53.1356 22.58C52.389 22.1667 51.809 21.58 51.3956 20.82C50.9823 20.0467 50.7756 19.14 50.7756 18.1C50.7756 17.06 50.9823 16.16 51.3956 15.4C51.809 14.64 52.389 14.0533 53.1356 13.64C53.8823 13.2267 54.7623 13.02 55.7756 13.02C56.789 13.02 57.669 13.2267 58.4156 13.64C59.1623 14.0533 59.7423 14.64 60.1556 15.4C60.569 16.16 60.7756 17.06 60.7756 18.1C60.7756 19.14 60.569 20.0467 60.1556 20.82C59.7423 21.58 59.1623 22.1667 58.4156 22.58C57.669 22.9933 56.789 23.2 55.7756 23.2ZM55.7756 21.3C56.5223 21.3 57.1223 21.0333 57.5756 20.5C58.029 19.9533 58.2556 19.1533 58.2556 18.1C58.2556 17.0333 58.029 16.24 57.5756 15.72C57.1223 15.1867 56.5223 14.92 55.7756 14.92C55.029 14.92 54.429 15.1867 53.9756 15.72C53.5223 16.24 53.2956 17.0333 53.2956 18.1C53.2956 19.1533 53.5223 19.9533 53.9756 20.5C54.429 21.0333 55.029 21.3 55.7756 21.3ZM67.2991 23.2C66.2857 23.2 65.4057 22.9933 64.6591 22.58C63.9124 22.1667 63.3324 21.58 62.9191 20.82C62.5057 20.0467 62.2991 19.14 62.2991 18.1C62.2991 17.06 62.5057 16.16 62.9191 15.4C63.3324 14.64 63.9124 14.0533 64.6591 13.64C65.4057 13.2267 66.2857 13.02 67.2991 13.02C68.3124 13.02 69.1924 13.2267 69.9391 13.64C70.6857 14.0533 71.2657 14.64 71.6791 15.4C72.0924 16.16 72.2991 17.06 72.2991 18.1C72.2991 19.14 72.0924 20.0467 71.6791 20.82C71.2657 21.58 70.6857 22.1667 69.9391 22.58C69.1924 22.9933 68.3124 23.2 67.2991 23.2ZM67.2991 21.3C68.0457 21.3 68.6457 21.0333 69.0991 20.5C69.5524 19.9533 69.7791 19.1533 69.7791 18.1C69.7791 17.0333 69.5524 16.24 69.0991 15.72C68.6457 15.1867 68.0457 14.92 67.2991 14.92C66.5524 14.92 65.9524 15.1867 65.4991 15.72C65.0457 16.24 64.8191 17.0333 64.8191 18.1C64.8191 19.1533 65.0457 19.9533 65.4991 20.5C65.9524 21.0333 66.5524 21.3 67.2991 21.3ZM74.3625 23V8.9H76.8625V17.38H76.9025L80.8425 13.22H83.8625L79.4225 17.9L84.1425 23H81.0825L76.9025 18.64H76.8625V23H74.3625ZM89.2052 23L84.2252 8.9H86.8652L90.3652 19.3L94.0452 8.9H95.9452L99.5452 19.44L103.145 8.9H105.645L100.625 23H98.5052L94.9252 12.82L91.3252 23H89.2052ZM107.191 11.12V8.68H109.991V11.12H107.191ZM107.351 23V13.22H109.851V23H107.351ZM116.028 23.2C115.202 23.2 114.428 23.1 113.708 22.9C112.988 22.7 112.388 22.4133 111.908 22.04L112.548 20.4C113.042 20.7333 113.595 20.9933 114.208 21.18C114.822 21.3533 115.435 21.44 116.048 21.44C116.688 21.44 117.162 21.3333 117.468 21.12C117.788 20.8933 117.948 20.6 117.948 20.24C117.948 19.68 117.535 19.32 116.708 19.16L114.708 18.78C113.015 18.46 112.168 17.58 112.168 16.14C112.168 15.5 112.342 14.9467 112.688 14.48C113.048 14.0133 113.542 13.6533 114.168 13.4C114.795 13.1467 115.515 13.02 116.328 13.02C117.022 13.02 117.688 13.12 118.328 13.32C118.968 13.5067 119.515 13.7933 119.968 14.18L119.288 15.82C118.902 15.5 118.435 15.2467 117.888 15.06C117.355 14.8733 116.842 14.78 116.348 14.78C115.695 14.78 115.208 14.8933 114.888 15.12C114.582 15.3467 114.428 15.6467 114.428 16.02C114.428 16.6067 114.808 16.9667 115.568 17.1L117.568 17.48C118.435 17.64 119.088 17.9333 119.528 18.36C119.982 18.7867 120.208 19.36 120.208 20.08C120.208 21.0533 119.828 21.82 119.068 22.38C118.308 22.9267 117.295 23.2 116.028 23.2ZM127.034 23.2C125.927 23.2 124.974 22.9933 124.174 22.58C123.374 22.1667 122.754 21.58 122.314 20.82C121.887 20.06 121.674 19.16 121.674 18.12C121.674 17.1067 121.881 16.22 122.294 15.46C122.721 14.7 123.301 14.1067 124.034 13.68C124.781 13.24 125.627 13.02 126.574 13.02C127.961 13.02 129.054 13.46 129.854 14.34C130.667 15.22 131.074 16.42 131.074 17.94V18.68H124.074C124.261 20.4267 125.261 21.3 127.074 21.3C127.621 21.3 128.167 21.22 128.714 21.06C129.261 20.8867 129.761 20.62 130.214 20.26L130.914 21.94C130.447 22.3267 129.861 22.6333 129.154 22.86C128.447 23.0867 127.741 23.2 127.034 23.2ZM126.674 14.72C125.941 14.72 125.347 14.9467 124.894 15.4C124.441 15.8533 124.167 16.4667 124.074 17.24H128.994C128.941 16.4267 128.714 15.8067 128.314 15.38C127.927 14.94 127.381 14.72 126.674 14.72Z" fill="url(#paint0_linear_726_2403)"/>
</g>
<defs>
<filter id="filter0_d_726_2403" x="0" y="0" width="136" height="40" filterUnits="userSpaceOnUse" color-interpolation-filters="sRGB">
<feFlood flood-opacity="0" result="BackgroundImageFix"/>
<feColorMatrix in="SourceAlpha" type="matrix" values="0 0 0 0 0 0 0 0 0 0 0 0 0 0 0 0 0 0 127 0" result="hardAlpha"/>
<feOffset dy="4"/>
<feGaussianBlur stdDeviation="2"/>
<feComposite in2="hardAlpha" operator="out"/>
<feColorMatrix type="matrix" values="0 0 0 0 0 0 0 0 0 0 0 0 0 0 0 0 0 0 0.25 0"/>
<feBlend mode="normal" in2="BackgroundImageFix" result="effect1_dropShadow_726_2403"/>
<feBlend mode="normal" in="SourceGraphic" in2="effect1_dropShadow_726_2403" result="shape"/>
</filter>
<linearGradient id="paint0_linear_726_2403" x1="36" y1="16.3137" x2="132" y2="16.3137" gradientUnits="userSpaceOnUse">
<stop stop-color="#7FD1CC"/>
<stop offset="1" stop-color="#9694F5"/>
</linearGradient>
</defs>
</svg>
